<?xml version="1.0" encoding="UTF-8"?>
<svg id="Réteg_1" xmlns="http://www.w3.org/2000/svg" version="1.1" xmlns:xlink="http://www.w3.org/1999/xlink" viewBox="0 0 500 176">
  <!-- Generator: Adobe Illustrator 29.3.1, SVG Export Plug-In . SVG Version: 2.1.0 Build 151)  -->
  <defs>
    <style>
      .st0 {
        fill: #fff;
      }

      .st1 {
        fill: none;
      }

      .st2 {
        clip-path: url(#clippath);
      }
    </style>
    <clipPath id="clippath">
      <rect class="st1" width="500" height="176"/>
    </clipPath>
  </defs>
  <g class="st2">
    <g>
      <g>
        <path class="st0" d="M91.1,46v33h-6.7l-13.1-19h-.2v19h-7.9v-33h6.8l12.9,19h.3v-19h7.9Z"/>
        <path class="st0" d="M107.6,79.5c-2.6,0-4.8-.5-6.7-1.5s-3.3-2.5-4.3-4.4-1.5-4.2-1.5-6.8.5-4.8,1.5-6.7c1-1.9,2.4-3.4,4.2-4.5,1.8-1.1,4-1.6,6.5-1.6s3.4.3,4.8.8c1.5.5,2.7,1.4,3.8,2.4,1.1,1.1,1.9,2.4,2.5,4,.6,1.6.9,3.4.9,5.4v2h-21.4v-4.6h14.1c0-.8-.2-1.6-.6-2.2-.4-.7-.9-1.2-1.6-1.5-.7-.4-1.4-.6-2.3-.6s-1.7.2-2.4.6-1.2.9-1.7,1.6c-.4.7-.6,1.4-.6,2.3v4.7c0,1,.2,1.9.6,2.6.4.8,1,1.3,1.7,1.8.7.4,1.6.6,2.6.6s1.3,0,1.9-.3c.6-.2,1.1-.5,1.5-.9.4-.4.7-.8.9-1.4l7.2.2c-.3,1.6-1,3-2,4.2s-2.3,2.1-4,2.8c-1.6.7-3.5,1-5.7,1Z"/>
        <path class="st0" d="M139.2,68.3v-14h7.8v24.7h-7.5v-4.6h-.3c-.5,1.5-1.5,2.7-2.8,3.6-1.3.9-2.9,1.3-4.7,1.3s-3.2-.4-4.4-1.2c-1.3-.8-2.3-1.9-3-3.2-.7-1.4-1.1-3-1.1-4.9v-15.8h7.8v14.2c0,1.3.4,2.4,1.1,3.2.7.8,1.6,1.2,2.8,1.2s1.5-.2,2.1-.5c.6-.4,1.1-.9,1.5-1.5.4-.7.6-1.5.6-2.4Z"/>
        <path class="st0" d="M152,79v-24.7h7.5v4.5h.3c.5-1.5,1.4-2.7,2.6-3.6,1.2-.9,2.7-1.3,4.4-1.3s3.2.4,4.4,1.3,2,2.1,2.3,3.5h.3c.5-1.5,1.4-2.6,2.7-3.5,1.3-.9,2.9-1.3,4.7-1.3s4.2.7,5.7,2.2c1.5,1.5,2.2,3.5,2.2,6.2v16.6h-7.8v-14.8c0-1.2-.3-2.2-.9-2.8s-1.4-1-2.5-1-1.9.4-2.5,1.1c-.6.7-.9,1.6-.9,2.8v14.8h-7.5v-14.9c0-1.1-.3-2.1-.9-2.7-.6-.7-1.4-1-2.5-1s-1.3.2-1.8.5c-.5.3-.9.8-1.2,1.4s-.4,1.3-.4,2.1v14.6h-7.8Z"/>
        <path class="st0" d="M200.7,79.4c-1.6,0-3-.3-4.2-.8-1.2-.5-2.2-1.3-2.9-2.4-.7-1.1-1.1-2.4-1.1-4.1s.2-2.5.7-3.5c.5-.9,1.1-1.7,2-2.3s1.8-1,2.9-1.3c1.1-.3,2.3-.5,3.5-.6,1.4-.1,2.5-.3,3.4-.4.9-.1,1.5-.4,1.9-.6.4-.3.6-.7.6-1.2h0c0-.9-.3-1.5-.9-2-.6-.4-1.3-.7-2.3-.7s-1.9.2-2.5.7c-.6.5-1,1.1-1.2,1.9l-7.2-.3c.2-1.5.8-2.8,1.7-4,.9-1.2,2.1-2.1,3.7-2.8,1.6-.7,3.4-1,5.7-1s3,.2,4.3.6c1.3.4,2.5.9,3.5,1.6,1,.7,1.7,1.6,2.3,2.6.5,1,.8,2.2.8,3.5v16.8h-7.4v-3.4h-.2c-.4.8-1,1.5-1.7,2.1s-1.5,1-2.4,1.3c-.9.3-1.9.4-3.1.4ZM203.2,74.3c.8,0,1.6-.2,2.3-.5.7-.3,1.2-.8,1.6-1.4.4-.6.6-1.3.6-2.1v-2.4c-.2.1-.5.2-.8.3s-.7.2-1,.3c-.4,0-.8.2-1.2.2-.4,0-.8.1-1.1.2-.7.1-1.4.3-1.9.5-.5.2-.9.6-1.2,1-.3.4-.4.9-.4,1.4,0,.8.3,1.4.9,1.9.6.4,1.3.6,2.2.6Z"/>
        <path class="st0" d="M228.1,64.9v14.1h-7.8v-24.7h7.5v4.5h.3c.5-1.5,1.5-2.7,2.8-3.6s2.9-1.3,4.7-1.3,3.2.4,4.5,1.2c1.3.8,2.3,1.9,3,3.3.7,1.4,1.1,3,1,4.9v15.8h-7.8v-14.2c0-1.4-.3-2.4-1-3.2-.7-.8-1.7-1.2-2.9-1.2s-1.5.2-2.2.5c-.6.4-1.1.9-1.4,1.5-.3.7-.5,1.5-.5,2.4Z"/>
        <path class="st0" d="M256.7,64.9v14.1h-7.8v-24.7h7.5v4.5h.3c.5-1.5,1.5-2.7,2.8-3.6s2.9-1.3,4.7-1.3,3.2.4,4.5,1.2c1.3.8,2.3,1.9,3,3.3.7,1.4,1.1,3,1,4.9v15.8h-7.8v-14.2c0-1.4-.3-2.4-1-3.2-.7-.8-1.7-1.2-2.9-1.2s-1.5.2-2.2.5c-.6.4-1.1.9-1.4,1.5-.3.7-.5,1.5-.5,2.4Z"/>
        <path class="st0" d="M300.5,46h7.8v22.8c0,2.1-.5,4-1.5,5.6-1,1.6-2.4,2.8-4.2,3.7-1.8.9-3.8,1.3-6.1,1.3s-3.9-.4-5.6-1.1c-1.7-.7-3-1.8-4-3.3-1-1.5-1.5-3.5-1.5-5.8h7.9c0,.8.2,1.6.5,2.2.3.6.7,1,1.2,1.3.5.3,1.1.5,1.9.5s1.4-.2,1.9-.5c.5-.3.9-.8,1.2-1.5.3-.6.4-1.4.4-2.4v-22.8Z"/>
        <path class="st0" d="M320.3,79.4c-1.6,0-3-.3-4.2-.8-1.2-.5-2.2-1.3-2.9-2.4-.7-1.1-1.1-2.4-1.1-4.1s.2-2.5.7-3.5c.5-.9,1.1-1.7,2-2.3s1.8-1,2.9-1.3c1.1-.3,2.3-.5,3.5-.6,1.4-.1,2.5-.3,3.4-.4.9-.1,1.5-.4,1.9-.6.4-.3.6-.7.6-1.2h0c0-.9-.3-1.5-.9-2-.6-.4-1.3-.7-2.3-.7s-1.9.2-2.5.7c-.6.5-1,1.1-1.2,1.9l-7.2-.3c.2-1.5.8-2.8,1.7-4,.9-1.2,2.1-2.1,3.7-2.8,1.6-.7,3.4-1,5.7-1s3,.2,4.3.6c1.3.4,2.5.9,3.5,1.6,1,.7,1.7,1.6,2.3,2.6.5,1,.8,2.2.8,3.5v16.8h-7.4v-3.4h-.2c-.4.8-1,1.5-1.7,2.1s-1.5,1-2.4,1.3c-.9.3-1.9.4-3.1.4ZM322.7,74.3c.8,0,1.6-.2,2.3-.5.7-.3,1.2-.8,1.6-1.4.4-.6.6-1.3.6-2.1v-2.4c-.2.1-.5.2-.8.3s-.7.2-1,.3c-.4,0-.8.2-1.2.2-.4,0-.8.1-1.1.2-.7.1-1.4.3-1.9.5-.5.2-.9.6-1.2,1-.3.4-.4.9-.4,1.4,0,.8.3,1.4.9,1.9.6.4,1.3.6,2.2.6ZM321.7,51.1l3.2-7.3h6.9l-4.8,7.3h-5.3Z"/>
        <path class="st0" d="M347.6,64.9v14.1h-7.8v-24.7h7.5v4.5h.3c.5-1.5,1.5-2.7,2.8-3.6,1.3-.9,2.9-1.3,4.7-1.3s3.2.4,4.5,1.2c1.3.8,2.3,1.9,3,3.3.7,1.4,1.1,3,1,4.9v15.8h-7.8v-14.2c0-1.4-.3-2.4-1-3.2-.7-.8-1.7-1.2-2.9-1.2s-1.5.2-2.2.5c-.6.4-1.1.9-1.4,1.5-.3.7-.5,1.5-.5,2.4Z"/>
        <path class="st0" d="M379.9,79.5c-2.6,0-4.8-.5-6.7-1.6-1.9-1.1-3.3-2.6-4.3-4.5-1-1.9-1.5-4.1-1.5-6.7s.5-4.8,1.5-6.7c1-1.9,2.4-3.4,4.3-4.5,1.9-1.1,4.1-1.6,6.7-1.6s4.8.5,6.7,1.6c1.9,1.1,3.3,2.6,4.3,4.5,1,1.9,1.5,4.1,1.5,6.7s-.5,4.8-1.5,6.7c-1,1.9-2.4,3.4-4.3,4.5-1.9,1.1-4.1,1.6-6.7,1.6ZM380,73.5c.9,0,1.7-.3,2.4-.9.6-.6,1.2-1.4,1.5-2.4.3-1,.5-2.2.5-3.6s-.2-2.6-.5-3.6c-.3-1-.9-1.8-1.5-2.4-.7-.6-1.4-.9-2.4-.9s-1.8.3-2.5.9c-.7.6-1.2,1.4-1.5,2.4-.3,1-.5,2.2-.5,3.6s.2,2.5.5,3.6c.3,1,.9,1.8,1.5,2.4s1.5.9,2.5.9Z"/>
        <path class="st0" d="M417.9,61.8l-7.2.2c0-.5-.3-1-.6-1.4s-.8-.7-1.3-1c-.5-.2-1.1-.3-1.8-.3s-1.7.2-2.3.5c-.6.4-.9.9-.9,1.5,0,.5.2.9.6,1.3s1.1.6,2.2.9l4.7.9c2.5.5,4.3,1.3,5.5,2.3,1.2,1.1,1.8,2.5,1.8,4.3,0,1.7-.5,3.2-1.5,4.4-1,1.3-2.3,2.2-4,2.9-1.7.7-3.7,1-5.9,1-3.5,0-6.3-.7-8.3-2.2-2-1.5-3.2-3.4-3.5-5.8l7.7-.2c.2.9.6,1.6,1.3,2.1.7.5,1.6.7,2.7.7s1.8-.2,2.5-.6c.6-.4,1-.9,1-1.5,0-.6-.3-1-.7-1.3-.5-.3-1.2-.6-2.3-.8l-4.3-.8c-2.5-.5-4.3-1.3-5.5-2.5-1.2-1.2-1.8-2.8-1.8-4.7,0-1.7.4-3.1,1.3-4.2s2.1-2.1,3.8-2.7c1.6-.6,3.6-.9,5.8-.9,3.3,0,6,.7,7.9,2.1,1.9,1.4,3,3.3,3.2,5.8Z"/>
        <path class="st0" d="M91.1,100.4v33h-6.7l-13.1-19h-.2v19h-7.9v-33h6.8l12.9,19h.3v-19h7.9Z"/>
        <path class="st0" d="M107.6,133.9c-2.6,0-4.8-.5-6.7-1.6-1.9-1.1-3.3-2.6-4.3-4.5-1-1.9-1.5-4.1-1.5-6.7s.5-4.8,1.5-6.7,2.4-3.4,4.3-4.5c1.9-1.1,4.1-1.6,6.7-1.6s4.8.5,6.7,1.6c1.9,1.1,3.3,2.6,4.3,4.5s1.5,4.1,1.5,6.7-.5,4.8-1.5,6.7c-1,1.9-2.4,3.4-4.3,4.5-1.9,1.1-4.1,1.6-6.7,1.6ZM107.6,127.9c.9,0,1.7-.3,2.4-.9.6-.6,1.2-1.4,1.5-2.4.3-1,.5-2.2.5-3.6s-.2-2.6-.5-3.6c-.3-1-.9-1.8-1.5-2.4-.7-.6-1.4-.9-2.4-.9s-1.8.3-2.5.9c-.7.6-1.2,1.4-1.5,2.4-.3,1-.5,2.2-.5,3.6s.2,2.5.5,3.6c.3,1,.9,1.8,1.5,2.4s1.5.9,2.5.9Z"/>
        <path class="st0" d="M131.9,119.3v14.1h-7.8v-24.7h7.5v4.5h.3c.5-1.5,1.5-2.7,2.8-3.6s2.9-1.3,4.7-1.3,3.2.4,4.5,1.2c1.3.8,2.3,1.9,3,3.3.7,1.4,1.1,3,1,4.9v15.8h-7.8v-14.2c0-1.4-.3-2.4-1-3.2-.7-.8-1.7-1.2-2.9-1.2s-1.5.2-2.2.5c-.6.4-1.1.9-1.4,1.5-.3.7-.5,1.5-.5,2.4Z"/>
        <path class="st0" d="M152.7,142.7v-34h7.8v4.2h.2c.3-.7.8-1.5,1.4-2.2.6-.7,1.4-1.3,2.3-1.7.9-.4,2-.7,3.3-.7s3.3.5,4.8,1.4c1.5.9,2.7,2.3,3.6,4.2.9,1.9,1.4,4.3,1.4,7.2s-.4,5.1-1.3,7c-.9,1.9-2.1,3.3-3.6,4.2-1.5.9-3.1,1.4-5,1.4s-2.3-.2-3.2-.6c-.9-.4-1.7-.9-2.3-1.6-.6-.7-1.1-1.4-1.4-2.1h-.2v13.3h-7.8ZM160.3,121c0,1.3.2,2.5.5,3.5.4,1,.9,1.8,1.6,2.3.7.5,1.5.8,2.4.8s1.8-.3,2.5-.8c.7-.5,1.2-1.3,1.5-2.3.3-1,.5-2.1.5-3.5s-.2-2.5-.5-3.5c-.3-1-.9-1.7-1.5-2.3-.7-.5-1.5-.8-2.5-.8s-1.8.3-2.5.8c-.7.5-1.2,1.3-1.5,2.3-.4,1-.5,2.1-.5,3.5Z"/>
        <path class="st0" d="M181.5,133.4v-24.7h7.6v4.5h.3c.4-1.6,1.2-2.8,2.2-3.6,1-.8,2.2-1.2,3.5-1.2s.7,0,1.1,0c.4,0,.7.1,1.1.2v6.8c-.4-.1-.9-.2-1.5-.3-.6,0-1.1-.1-1.6-.1-.9,0-1.8.2-2.5.6-.7.4-1.3,1-1.7,1.7-.4.7-.6,1.6-.6,2.6v13.4h-7.8Z"/>
        <path class="st0" d="M210.8,133.9c-2.6,0-4.8-.5-6.7-1.6-1.9-1.1-3.3-2.6-4.3-4.5-1-1.9-1.5-4.1-1.5-6.7s.5-4.8,1.5-6.7c1-1.9,2.4-3.4,4.3-4.5,1.9-1.1,4.1-1.6,6.7-1.6s4.8.5,6.7,1.6c1.9,1.1,3.3,2.6,4.3,4.5,1,1.9,1.5,4.1,1.5,6.7s-.5,4.8-1.5,6.7c-1,1.9-2.4,3.4-4.3,4.5-1.9,1.1-4.1,1.6-6.7,1.6ZM210.8,127.9c.9,0,1.7-.3,2.4-.9.6-.6,1.2-1.4,1.5-2.4.3-1,.5-2.2.5-3.6s-.2-2.6-.5-3.6c-.3-1-.9-1.8-1.5-2.4-.7-.6-1.4-.9-2.4-.9s-1.8.3-2.5.9c-.7.6-1.2,1.4-1.5,2.4-.3,1-.5,2.2-.5,3.6s.2,2.5.5,3.6c.3,1,.9,1.8,1.5,2.4s1.5.9,2.5.9Z"/>
        <path class="st0" d="M241.2,108.7v5.8h-15.8v-5.8h15.8ZM228.7,133.4v-26c0-1.9.4-3.5,1.1-4.8s1.7-2.2,3-2.8c1.3-.6,2.7-.9,4.4-.9s2.1,0,3.1.2c1,.2,1.7.3,2.2.4l-1.2,5.8c-.3,0-.6-.2-1.1-.2-.4,0-.8,0-1.2,0-.9,0-1.6.2-1.9.6-.3.4-.5,1-.5,1.7v26.1h-7.8Z"/>
        <path class="st0" d="M248.9,105.8c-1.1,0-2-.4-2.8-1.1s-1.2-1.6-1.2-2.7.4-1.9,1.2-2.6c.8-.7,1.7-1.1,2.8-1.1s2.1.4,2.8,1.1c.8.7,1.2,1.6,1.2,2.6s-.4,1.9-1.2,2.7c-.8.7-1.7,1.1-2.8,1.1ZM245,133.4v-24.7h7.8v24.7h-7.8Z"/>
        <path class="st0" d="M271.7,108.7v5.8h-15.5v-5.8h15.5ZM259.4,102.7h7.8v22.9c0,.5,0,.9.2,1.2s.4.5.7.6c.3.1.7.2,1.1.2s.6,0,1,0c.3,0,.6-.1.8-.2l1.2,5.7c-.4.1-.9.2-1.6.4s-1.5.3-2.4.3c-1.8,0-3.4-.1-4.7-.7-1.3-.5-2.3-1.3-3-2.4-.7-1.1-1-2.5-1-4.2v-23.7Z"/>
        <path class="st0" d="M285.4,133.4v-33h7.9v13.9h.4l10.9-13.9h9.3l-11.6,14.7,11.8,18.3h-9.5l-8.2-13-3.2,4v8.9h-7.9Z"/>
        <path class="st0" d="M331.1,108.7v5.8h-15.8v-5.8h15.8ZM318.6,133.4v-26c0-1.9.4-3.5,1.1-4.8.7-1.3,1.7-2.2,3-2.8,1.3-.6,2.7-.9,4.4-.9s2.1,0,3.1.2c1,.2,1.7.3,2.2.4l-1.2,5.8c-.3,0-.6-.2-1.1-.2-.4,0-.8,0-1.2,0-.9,0-1.6.2-1.9.6-.3.4-.5,1-.5,1.7v26.1h-7.8Z"/>
        <path class="st0" d="M348.8,108.7v5.8h-15.5v-5.8h15.5ZM336.5,102.7h7.8v22.9c0,.5,0,.9.2,1.2s.4.5.7.6c.3.1.7.2,1.1.2s.6,0,1,0c.3,0,.6-.1.8-.2l1.2,5.7c-.4.1-.9.2-1.6.4s-1.5.3-2.4.3c-1.8,0-3.4-.1-4.7-.7-1.3-.5-2.3-1.3-3-2.4-.7-1.1-1-2.5-1-4.2v-23.7Z"/>
        <path class="st0" d="M357.2,133.9c-1.2,0-2.1-.4-3-1.2s-1.2-1.8-1.2-3c0-1.1.4-2.1,1.2-2.9s1.8-1.2,3-1.2,2.1.4,2.9,1.2,1.3,1.8,1.3,2.9c0,.8-.2,1.5-.6,2.1-.4.6-.9,1.1-1.5,1.5-.6.4-1.3.6-2,.6Z"/>
      </g>
      <polygon class="st0" points="442.6 41.1 442.6 18.3 430.7 18.3 430.7 53.1 465.4 53.1 465.4 41.1 442.6 41.1"/>
      <polygon class="st0" points="47.5 146.3 47.5 123.5 35.6 123.5 35.6 158.3 70.3 158.3 70.3 146.3 47.5 146.3"/>
    </g>
  </g>
</svg>