<svg xmlns:xlink="http://www.w3.org/1999/xlink"
     xmlns:sodipodi="http://sodipodi.sourceforge.net/DTD/sodipodi-0.dtd" xmlns:inkscape="http://www.inkscape.org/namespaces/inkscape"
     class="logo"
     xmlns="http://www.w3.org/2000/svg" style="isolation:isolate" viewBox="0 0 700 700"
     id="svg36" sodipodi:docname="quiznight_logo.svg" inkscape:version="0.92.2 2405546, 2018-03-11">
    <metadata id="metadata40"></metadata>
    <defs id="defs5">
        <clipPath id="_clipPath_cpeFUE5ZFBhBJzkT6vCJ8SKK9hKhHISr">
            <rect width="700" height="700" id="rect2"></rect>
        </clipPath>
        <linearGradient inkscape:collect="always" xlink:href="#_lgradient_0" id="linearGradient853" x1="122.3"
                        y1="644.29999" x2="556.43823" y2="644.29999" gradientUnits="userSpaceOnUse"></linearGradient>
    </defs>
    <g clip-path="url(#_clipPath_cpeFUE5ZFBhBJzkT6vCJ8SKK9hKhHISr)" id="g34">
        <g id="XMLID_5_">
            <linearGradient id="_lgradient_0" x1="-1.6699702588270027%" y1="99.22995731023661%" x2="104.0533511015212%"
                            y2="-11.844733526368778%">
                <stop offset="0%" stop-opacity="1" style="stop-color:rgb(255,26,64)" id="stop7"></stop>
                <stop offset="100%" stop-opacity="1" style="stop-color:rgb(108,0,209)" id="stop9"></stop>
            </linearGradient>
            <path d=" M 359.353 370.016 C 340.804 331.904 307.6 314.9 307.6 314.9 C 285.8 289.4 284.3 231.9 284.3 231.9 C 313.4 205.2 308 146 308 146 C 332.5 167.6 301.7 221.7 301.7 221.7 C 286.9 295.9 317.3 301.2 317.3 301.2 C 307.6 273.3 328.9 239.4 328.9 239.4 C 358.1 215.5 360.7 166.4 360.7 166.4 C 366.9 88.8 291.2 106.1 291.2 106.1 C 253 69.1 182.6 77.7 182.6 77.7 C 121.5 83.1 139.4 148.4 139.4 148.4 C 140.6 152.7 137.5 158.7 137.5 158.7 C 135.6 162.1 136.2 175.1 136.2 175.1 C 135.2 182.5 139.5 182.6 139.5 182.6 C 141.9 183.5 141.4 187.8 141.4 187.8 C 136.3 192.3 136.2 190.3 136.2 190.3 C 138.6 191.5 141.6 192.4 141.6 192.4 C 140.7 195.8 138.5 198.8 138.5 198.8 C 135.5 206.6 131.1 212.4 131.1 212.4 C 119.9 222.5 128.7 225.5 128.7 225.5 L 136.1 228.2 C 143.2 229.9 140.4 234.7 140.4 234.7 L 137.2 237.8 C 133.1 242 139.2 245.7 139.2 245.7 L 144 249.5 C 139.6 255.7 146 256.7 146 256.7 C 151 257.5 150.3 263.8 150.3 263.8 L 150.2 268.8 C 151.8 282.7 168.6 280 168.6 280 L 182.6 276.6 C 188.2 274.5 220.7 262.7 220.7 262.7 C 236.6 280.9 221.9 313.6 221.9 313.6 L 213.4 319.1 C 189.2 328.7 178 375.5 178 375.5 L 171.8 408.1 L 169.5 428.4 C 169.5 428.4 152.7 496.9 145.9 507.6 L 132.1 535 C 131.9 535.4 131.3 535.4 131.2 534.9 C 127.3 524.1 97.4 440.2 97.4 429.9 C 97.4 429.9 89.8 390.8 87.8 387.6 C 87.8 387.6 98.6 372 89.9 339.8 C 89.9 339.8 83.3 313.9 83.2 311.2 L 82.7 306.4 C 82.7 306.4 74.3 302.6 74.7 318.9 C 74.7 318.9 75.9 341.2 72.6 345 C 72.6 345 47.5 314.7 43.6 309 C 43.6 309 29.2 289.9 27.9 289 L 23.9 285.8 C 23.9 285.8 17.7 289 24.7 299.4 C 24.7 299.4 38.9 318.5 39.3 321.4 C 39.3 321.4 31.8 321.7 31.8 328.5 C 31.8 328.5 19 326.1 21.3 339.9 C 21.3 339.9 10.2 342.3 21.2 360.4 C 21.2 360.4 29.2 395.1 45.6 403.4 C 45.6 403.4 54.2 429.1 56 449.8 C 56 449.8 71.6 532.1 74 545.4 C 74 545.4 82.6 591.9 109.5 593.1 L 266.8 593.3 L 373.256 593.122 L 562.6 593.3 C 568.4 587.1 588.7 548.8 588.7 548.8 C 594 543.1 623 473.4 623 473.4 C 630.2 457.9 658.1 411.7 658.1 411.7 C 670.1 398.6 678.9 361 678.9 361 C 682.9 353 682.2 337.1 682.2 337.1 C 686.3 330 670 319.7 670 319.7 C 668.3 308.7 654.6 310.3 654.6 310.3 C 652.1 299.6 637 302.6 637 302.6 C 636.5 299.9 639.8 283.1 639.8 283.1 C 641.7 279.1 644.1 253.9 644.1 253.9 C 649.6 233.6 639.9 234.4 639.9 234.4 C 633.7 233 629.1 251.6 629.1 251.6 C 626.4 256.9 623.5 278.6 623.5 278.6 C 621.7 289.6 609.3 332.9 609.3 332.9 C 610.6 328.5 599.8 302.3 599.8 302.3 C 596.5 280.6 588.4 289.8 588.4 289.8 C 581.2 295.1 587.6 326.1 587.6 326.1 C 589.4 330.5 591.4 350.9 591.4 350.9 C 589.9 369.5 596.8 389.9 596.8 389.9 C 602 406.8 596.1 422.7 596.1 422.7 C 579.5 454 555 468.4 555 468.4 C 556.4 464 540.6 397.9 540.6 397.9 C 540.6 397.9 511.1 323.5 506.5 315.8 L 496.2 300 C 496.2 300 494.3 288.6 495.9 286.3 C 495.9 286.3 503.9 278.3 505.3 274.1 C 505.3 274.1 507.1 266.4 511.1 266 C 511.1 266 533 263.9 535.8 263 C 535.8 263 545.6 262.6 549.4 256.6 C 549.4 256.6 554.2 246.4 549.1 240.3 C 549.1 240.3 547.4 237.5 548.7 234.7 C 548.7 234.7 553.5 233.1 554.7 232.2 C 554.7 232.2 557.7 228.6 555 224.6 C 555 224.6 560.9 221.2 559.5 217 C 559.5 217 557.7 213.8 557.9 212.4 C 557.9 212.4 558.2 208 558.4 207.3 C 558.4 207.3 558.4 204.3 561.4 203.6 C 561.4 203.6 569.5 201.1 570.7 199.3 C 570.7 199.3 574.2 191.4 567.1 186.5 C 567.1 186.5 561.4 178.1 561 175.3 L 556.2 166.5 C 556.2 166.5 553.7 158.1 557 154 C 557 154 559 142.2 554.2 135.2 C 554.2 135.2 547.4 112.2 546.3 111 L 545.2 107.7 C 545.2 107.7 555.7 105.2 551.8 96.4 C 551.8 96.4 541 81.5 536.4 79.1 C 536.4 79.1 511.8 51.8 455.3 56.4 C 455.3 56.4 403.1 67.3 394.3 114 C 394.3 114 389.2 156.8 399.6 188.4 C 399.6 188.4 404.5 208.4 407.7 212.1 C 407.7 212.1 416.2 216.6 416.9 219.8 C 416.9 219.8 414.7 260.1 409.5 268.4 C 409.5 268.4 377.9 315.1 376.2 318.8 C 376.2 318.8 366.369 346.87 359.353 370.016 Z "
                  fill="url(#_lgradient_0)" id="path12"></path>
        </g>
        <g id="Group"
           style="fill-opacity:1;fill:url(#linearGradient853);stroke:none;stroke-width:10;stroke-miterlimit:4;stroke-dasharray:none;stroke-opacity:1">
            <path d=" M 195.1 668.5 L 157 668.5 C 152.2 668.5 147.7 667.7 143.6 666 C 139.5 664.3 135.9 661.9 132.9 658.9 C 129.9 655.9 127.5 652.2 125.8 648.1 C 124.1 643.9 123.3 639.4 123.3 634.4 C 123.3 629.4 124.1 624.9 125.8 620.7 C 127.5 616.5 129.8 612.9 132.9 609.9 C 135.9 606.9 139.5 604.5 143.6 602.8 C 147.7 601.1 152.2 600.3 157 600.3 C 161.8 600.3 166.2 601.1 170.3 602.8 C 174.4 604.5 178 606.9 181 609.9 C 184 612.9 186.4 616.5 188.1 620.7 C 189.8 624.9 190.6 629.4 190.6 634.4 C 190.6 640.3 189.3 645.7 186.7 650.5 C 184.1 655.4 180.2 659.3 175 662.3 L 175 662.5 L 195.1 662.5 L 195.1 668.5 L 195.1 668.5 Z  M 130.4 634.3 C 130.4 638.1 131 641.6 132.2 645 C 133.4 648.4 135.2 651.4 137.4 654 C 139.7 656.6 142.4 658.7 145.7 660.2 C 149 661.7 152.7 662.5 156.9 662.5 C 161 662.5 164.7 661.7 168 660.2 C 171.3 658.7 174.1 656.6 176.4 654 C 178.7 651.4 180.5 648.4 181.7 645 C 183 641.6 183.6 638.1 183.6 634.3 C 183.6 630.5 183 627 181.7 623.6 C 180.4 620.2 178.7 617.2 176.4 614.6 C 174.1 612 171.3 609.9 168 608.4 C 164.7 606.9 161 606.1 156.9 606.1 C 152.8 606.1 149 606.9 145.7 608.4 C 142.4 609.9 139.6 612 137.4 614.6 C 135.1 617.2 133.4 620.2 132.2 623.6 C 131 627 130.4 630.6 130.4 634.3 Z "
                  fill="rgb(0,0,0)" stroke-width="2" stroke="rgb(255,26,64)" stroke-linejoin="miter"
                  stroke-linecap="butt" stroke-miterlimit="10" id="path15"
                  style="fill-opacity:1;fill:url(#linearGradient853);stroke:none;stroke-width:10;stroke-miterlimit:4;stroke-dasharray:none;stroke-opacity:1"></path>
            <path d=" M 237.8 668.5 C 237.7 667.3 237.6 666 237.5 664.5 C 237.4 663.1 237.4 661.9 237.4 660.9 L 237.2 660.9 C 235.9 663.5 233.9 665.6 231.1 667.2 C 228.3 668.8 225.3 669.6 222.2 669.6 C 216.6 669.6 212.4 667.9 209.6 664.6 C 206.8 661.3 205.4 656.9 205.4 651.4 L 205.4 624.4 L 211.8 624.4 L 211.8 648.8 C 211.8 651.1 212 653.2 212.4 655.1 C 212.8 657 213.4 658.6 214.3 659.9 C 215.2 661.3 216.4 662.3 218 663.1 C 219.5 663.9 221.5 664.2 223.8 664.2 C 225.5 664.2 227.1 663.9 228.7 663.2 C 230.3 662.5 231.7 661.5 233 660 C 234.3 658.6 235.3 656.8 236 654.6 C 236.7 652.4 237.1 649.9 237.1 646.9 L 237.1 624.3 L 243.5 624.3 L 243.5 658.7 C 243.5 659.9 243.5 661.4 243.6 663.3 C 243.7 665.2 243.8 666.9 243.9 668.4 L 237.8 668.4 L 237.8 668.5 Z "
                  fill="rgb(0,0,0)" stroke-width="2" stroke="rgb(255,26,64)" stroke-linejoin="miter"
                  stroke-linecap="butt" stroke-miterlimit="10" id="path17"
                  style="fill-opacity:1;fill:url(#linearGradient853);stroke:none;stroke-width:10;stroke-miterlimit:4;stroke-dasharray:none;stroke-opacity:1"></path>
            <path d=" M 268.3 607.5 C 268.3 608.8 267.8 609.9 266.9 610.7 C 266 611.5 264.9 612 263.8 612 C 262.7 612 261.6 611.6 260.7 610.7 C 259.8 609.9 259.3 608.8 259.3 607.5 C 259.3 606.2 259.8 605.1 260.7 604.3 C 261.6 603.5 262.7 603 263.8 603 C 264.9 603 266 603.4 266.9 604.3 C 267.8 605.1 268.3 606.2 268.3 607.5 Z  M 267 668.5 L 260.6 668.5 L 260.6 624.4 L 267 624.4 L 267 668.5 L 267 668.5 Z "
                  fill="rgb(0,0,0)" stroke-width="2" stroke="rgb(255,26,64)" stroke-linejoin="miter"
                  stroke-linecap="butt" stroke-miterlimit="10" id="path19"
                  style="fill-opacity:1;fill:url(#linearGradient853);stroke:none;stroke-width:10;stroke-miterlimit:4;stroke-dasharray:none;stroke-opacity:1"></path>
            <path d=" M 313.3 629 L 286.9 663 L 314.2 663 L 314.2 668.6 L 278.4 668.6 L 278.4 664 L 304.7 629.8 L 279.8 629.8 L 279.8 624.4 L 313.3 624.4 L 313.3 629 L 313.3 629 Z "
                  fill="rgb(0,0,0)" stroke-width="2" stroke="rgb(255,26,64)" stroke-linejoin="miter"
                  stroke-linecap="butt" stroke-miterlimit="10" id="path21"
                  style="fill-opacity:1;fill:url(#linearGradient853);stroke:none;stroke-width:10;stroke-miterlimit:4;stroke-dasharray:none;stroke-opacity:1"></path>
            <path d=" M 373.3 658.6 L 373.5 658.6 L 373.5 601.8 L 380.3 601.8 L 380.3 668.4 L 371.8 668.4 L 333 611.2 L 332.8 611.2 L 332.8 668.5 L 326 668.5 L 326 601.9 L 334.5 601.9 L 373.3 658.6 L 373.3 658.6 Z "
                  fill="rgb(0,0,0)" stroke-width="2" stroke="rgb(255,26,64)" stroke-linejoin="miter"
                  stroke-linecap="butt" stroke-miterlimit="10" id="path23"
                  style="fill-opacity:1;fill:url(#linearGradient853);stroke:none;stroke-width:10;stroke-miterlimit:4;stroke-dasharray:none;stroke-opacity:1"></path>
            <path d=" M 405.4 607.5 C 405.4 608.8 404.9 609.9 404 610.7 C 403.1 611.5 402 612 400.9 612 C 399.8 612 398.7 611.6 397.8 610.7 C 396.9 609.9 396.4 608.8 396.4 607.5 C 396.4 606.2 396.9 605.1 397.8 604.3 C 398.7 603.5 399.8 603 400.9 603 C 402 603 403.1 603.4 404 604.3 C 404.9 605.1 405.4 606.2 405.4 607.5 Z  M 404 668.5 L 397.6 668.5 L 397.6 624.4 L 404 624.4 L 404 668.5 L 404 668.5 Z "
                  fill="rgb(0,0,0)" stroke-width="2" stroke="rgb(255,26,64)" stroke-linejoin="miter"
                  stroke-linecap="butt" stroke-miterlimit="10" id="path25"
                  style="fill-opacity:1;fill:url(#linearGradient853);stroke:none;stroke-width:10;stroke-miterlimit:4;stroke-dasharray:none;stroke-opacity:1"></path>
            <path d=" M 423.4 677.3 C 425.2 679.6 427.6 681.5 430.6 683 C 433.6 684.6 436.9 685.4 440.2 685.4 C 443.3 685.4 446 684.9 448.2 684 C 450.4 683.1 452.2 681.8 453.5 680.3 C 454.8 678.7 455.8 676.9 456.5 674.8 C 457.1 672.7 457.4 670.5 457.4 668.1 L 457.4 659.8 L 457.2 659.8 C 455.5 662.6 453.1 664.7 450 666.2 C 446.9 667.7 443.7 668.5 440.5 668.5 C 437 668.5 433.9 667.9 431.1 666.8 C 428.3 665.7 425.9 664.1 423.9 662.1 C 421.9 660.1 420.4 657.8 419.3 655 C 418.2 652.2 417.7 649.3 417.7 646.1 C 417.7 643 418.2 640 419.3 637.3 C 420.4 634.5 421.9 632.1 423.9 630.1 C 425.9 628 428.3 626.4 431.1 625.2 C 433.9 624 437 623.4 440.5 623.4 C 443.7 623.4 446.8 624.2 449.9 625.7 C 453 627.2 455.4 629.4 457.1 632.2 L 457.3 632.2 L 457.3 624.6 L 463.7 624.6 L 463.7 668.3 C 463.7 670.7 463.4 673.2 462.7 675.9 C 462 678.6 460.8 681.1 459 683.3 C 457.2 685.6 454.8 687.4 451.7 688.9 C 448.6 690.4 444.6 691.2 439.7 691.2 C 435.6 691.2 431.7 690.4 428 688.8 C 424.3 687.2 421.1 685.1 418.5 682.3 L 423.4 677.3 L 423.4 677.3 Z  M 424.7 645.9 C 424.7 648.2 425.1 650.4 425.8 652.5 C 426.6 654.6 427.6 656.4 429 658 C 430.4 659.6 432.2 660.8 434.2 661.7 C 436.3 662.6 438.6 663.1 441.3 663.1 C 443.7 663.1 446 662.7 448.1 661.9 C 450.2 661.1 452 659.9 453.5 658.4 C 455 656.9 456.2 655.1 457 653 C 457.8 650.9 458.3 648.6 458.3 646 C 458.3 643.7 457.9 641.5 457 639.4 C 456.2 637.3 455 635.5 453.5 633.9 C 452 632.3 450.2 631.1 448.1 630.1 C 446 629.1 443.8 628.7 441.3 628.7 C 438.7 628.7 436.3 629.2 434.2 630.1 C 432.1 631 430.4 632.3 429 633.9 C 427.6 635.5 426.5 637.3 425.8 639.4 C 425 641.4 424.7 643.6 424.7 645.9 Z "
                  fill="rgb(0,0,0)" stroke-width="2" stroke="rgb(255,26,64)" stroke-linejoin="miter"
                  stroke-linecap="butt" stroke-miterlimit="10" id="path27"
                  style="fill-opacity:1;fill:url(#linearGradient853);stroke:none;stroke-width:10;stroke-miterlimit:4;stroke-dasharray:none;stroke-opacity:1"></path>
            <path d=" M 487.3 631.7 C 488.5 629.1 490.5 627.1 493.2 625.6 C 496 624.1 498.9 623.3 502 623.3 C 507.6 623.3 511.8 625 514.6 628.3 C 517.4 631.6 518.8 636 518.8 641.5 L 518.8 668.5 L 512.4 668.5 L 512.4 644.1 C 512.4 641.8 512.2 639.7 511.8 637.8 C 511.4 635.9 510.8 634.3 509.9 633 C 509 631.7 507.8 630.6 506.2 629.8 C 504.7 629 502.7 628.7 500.4 628.7 C 498.7 628.7 497.1 629 495.5 629.7 C 493.9 630.4 492.5 631.4 491.2 632.9 C 489.9 634.3 488.9 636.1 488.2 638.3 C 487.4 640.5 487.1 643 487.1 646 L 487.1 668.6 L 480.7 668.6 L 480.7 597.4 L 487.1 597.4 L 487.1 631.8 L 487.3 631.8 L 487.3 631.7 Z "
                  fill="rgb(0,0,0)" stroke-width="2" stroke="rgb(255,26,64)" stroke-linejoin="miter"
                  stroke-linecap="butt" stroke-miterlimit="10" id="path29"
                  style="fill-opacity:1;fill:url(#linearGradient853);stroke:none;stroke-width:10;stroke-miterlimit:4;stroke-dasharray:none;stroke-opacity:1"></path>
            <path d=" M 555.3 629.8 L 542.9 629.8 L 542.9 655.5 C 542.9 657.1 543.1 658.5 543.4 659.5 C 543.7 660.6 544.2 661.4 544.8 662 C 545.4 662.6 546.1 663 546.9 663.2 C 547.7 663.4 548.6 663.5 549.5 663.5 C 550.4 663.5 551.3 663.4 552.3 663.1 C 553.3 662.9 554.2 662.5 555.1 662.1 L 555.4 667.7 C 554.3 668.1 553.1 668.5 551.9 668.7 C 550.7 668.9 549.3 669 547.9 669 C 546.7 669 545.5 668.8 544.1 668.5 C 542.8 668.2 541.6 667.6 540.4 666.7 C 539.3 665.8 538.3 664.6 537.6 663.1 C 536.9 661.6 536.5 659.6 536.5 657.2 L 536.5 629.7 L 527.4 629.7 L 527.4 624.3 L 536.5 624.3 L 536.5 612 L 542.9 612 L 542.9 624.4 L 555.3 624.4 L 555.3 629.8 L 555.3 629.8 Z "
                  fill="rgb(0,0,0)" stroke-width="2" stroke="rgb(255,26,64)" stroke-linejoin="miter"
                  stroke-linecap="butt" stroke-miterlimit="10" id="path31"
                  style="fill-opacity:1;fill:url(#linearGradient853);stroke:none;stroke-width:10;stroke-miterlimit:4;stroke-dasharray:none;stroke-opacity:1"></path>
        </g>
    </g>
</svg>